<svg xmlns="http://www.w3.org/2000/svg" xmlns:xlink="http://www.w3.org/1999/xlink" width="500" zoomAndPan="magnify" viewBox="0 0 375 374.999991" height="500" preserveAspectRatio="xMidYMid meet" version="1.0"><defs><clipPath id="3b054a4035"><path d="M 26.296875 26.296875 L 348.425781 26.296875 L 348.425781 348.425781 L 26.296875 348.425781 Z M 26.296875 26.296875 " clip-rule="nonzero"/></clipPath><clipPath id="64bb2769b0"><path d="M 187.363281 26.296875 C 98.410156 26.296875 26.296875 98.410156 26.296875 187.363281 C 26.296875 276.316406 98.410156 348.425781 187.363281 348.425781 C 276.316406 348.425781 348.425781 276.316406 348.425781 187.363281 C 348.425781 98.410156 276.316406 26.296875 187.363281 26.296875 Z M 187.363281 26.296875 " clip-rule="nonzero"/></clipPath><clipPath id="d3198d712b"><path d="M 0.296875 0.296875 L 322.425781 0.296875 L 322.425781 322.425781 L 0.296875 322.425781 Z M 0.296875 0.296875 " clip-rule="nonzero"/></clipPath><clipPath id="4153408aac"><path d="M 161.363281 0.296875 C 72.410156 0.296875 0.296875 72.410156 0.296875 161.363281 C 0.296875 250.316406 72.410156 322.425781 161.363281 322.425781 C 250.316406 322.425781 322.425781 250.316406 322.425781 161.363281 C 322.425781 72.410156 250.316406 0.296875 161.363281 0.296875 Z M 161.363281 0.296875 " clip-rule="nonzero"/></clipPath><clipPath id="29d056e4f5"><rect x="0" width="323" y="0" height="323"/></clipPath><clipPath id="1f2007519a"><path d="M 78.84375 78.84375 L 296.15625 78.84375 L 296.15625 296.15625 L 78.84375 296.15625 Z M 78.84375 78.84375 " clip-rule="nonzero"/></clipPath><clipPath id="511baf3453"><path d="M 187.5 78.84375 C 127.488281 78.84375 78.84375 127.488281 78.84375 187.5 C 78.84375 247.511719 127.488281 296.15625 187.5 296.15625 C 247.511719 296.15625 296.15625 247.511719 296.15625 187.5 C 296.15625 127.488281 247.511719 78.84375 187.5 78.84375 Z M 187.5 78.84375 " clip-rule="nonzero"/></clipPath><clipPath id="b5d4fddbd1"><path d="M 0.84375 0.84375 L 218.15625 0.84375 L 218.15625 218.15625 L 0.84375 218.15625 Z M 0.84375 0.84375 " clip-rule="nonzero"/></clipPath><clipPath id="27c73f99d8"><path d="M 109.5 0.84375 C 49.488281 0.84375 0.84375 49.488281 0.84375 109.5 C 0.84375 169.511719 49.488281 218.15625 109.5 218.15625 C 169.511719 218.15625 218.15625 169.511719 218.15625 109.5 C 218.15625 49.488281 169.511719 0.84375 109.5 0.84375 Z M 109.5 0.84375 " clip-rule="nonzero"/></clipPath><clipPath id="386082f6c1"><rect x="0" width="219" y="0" height="219"/></clipPath><clipPath id="8f548c810f"><path d="M 131.386719 131.386719 L 243.613281 131.386719 L 243.613281 243.613281 L 131.386719 243.613281 Z M 131.386719 131.386719 " clip-rule="nonzero"/></clipPath><clipPath id="05243fd46a"><path d="M 187.5 131.386719 C 156.507812 131.386719 131.386719 156.507812 131.386719 187.5 C 131.386719 218.492188 156.507812 243.613281 187.5 243.613281 C 218.492188 243.613281 243.613281 218.492188 243.613281 187.5 C 243.613281 156.507812 218.492188 131.386719 187.5 131.386719 Z M 187.5 131.386719 " clip-rule="nonzero"/></clipPath><clipPath id="f9e4aa364f"><path d="M 0.386719 0.386719 L 112.613281 0.386719 L 112.613281 112.613281 L 0.386719 112.613281 Z M 0.386719 0.386719 " clip-rule="nonzero"/></clipPath><clipPath id="d6177de8f4"><path d="M 56.5 0.386719 C 25.507812 0.386719 0.386719 25.507812 0.386719 56.5 C 0.386719 87.492188 25.507812 112.613281 56.5 112.613281 C 87.492188 112.613281 112.613281 87.492188 112.613281 56.5 C 112.613281 25.507812 87.492188 0.386719 56.5 0.386719 Z M 56.5 0.386719 " clip-rule="nonzero"/></clipPath><clipPath id="eea1417a97"><rect x="0" width="113" y="0" height="113"/></clipPath></defs><g clip-path="url(#3b054a4035)"><g clip-path="url(#64bb2769b0)"><g transform="matrix(1, 0, 0, 1, 26, 26)"><g clip-path="url(#29d056e4f5)"><g clip-path="url(#d3198d712b)"><g clip-path="url(#4153408aac)"><path fill="#1e783a" d="M 0.296875 0.296875 L 322.425781 0.296875 L 322.425781 322.425781 L 0.296875 322.425781 Z M 0.296875 0.296875 " fill-opacity="1" fill-rule="nonzero"/></g></g></g></g></g></g><g clip-path="url(#1f2007519a)"><g clip-path="url(#511baf3453)"><g transform="matrix(1, 0, 0, 1, 78, 78)"><g clip-path="url(#386082f6c1)"><g clip-path="url(#b5d4fddbd1)"><g clip-path="url(#27c73f99d8)"><path fill="#ffce2a" d="M 0.84375 0.84375 L 218.15625 0.84375 L 218.15625 218.15625 L 0.84375 218.15625 Z M 0.84375 0.84375 " fill-opacity="1" fill-rule="nonzero"/></g></g></g></g></g></g><g clip-path="url(#8f548c810f)"><g clip-path="url(#05243fd46a)"><g transform="matrix(1, 0, 0, 1, 131, 131)"><g clip-path="url(#eea1417a97)"><g clip-path="url(#f9e4aa364f)"><g clip-path="url(#d6177de8f4)"><path fill="#7035a1" d="M 0.386719 0.386719 L 112.613281 0.386719 L 112.613281 112.613281 L 0.386719 112.613281 Z M 0.386719 0.386719 " fill-opacity="1" fill-rule="nonzero"/></g></g></g></g></g></g></svg>